Coordinates
version=1
nRows=21
nColumns=12
inDegrees=yes

Units are S.I. units (second, meters, Newtons, ...)
Angles are in degrees

endheader
time	SC_y	SC_z	SC_x	AC_y	AC_z	AC_x	GH_y	GH_z	GH_yy	EL_x	PS_y
       0.0              -29.27         -3.253          28.83          61.03         -11.89          3.162         -12.32          -12.8         -29.63          108.3          102.9
   0.02489              -29.27         -3.247          28.84          61.03         -11.89          3.159         -12.32          -12.8         -29.63          108.3          102.9
   0.04978              -29.27         -3.241          28.84          61.03         -11.89          3.156         -12.32         -12.79         -29.63          108.3          102.9
   0.07467              -29.27         -3.234          28.85          61.03         -11.89          3.154         -12.32         -12.79         -29.63          108.3          102.9
   0.09956              -29.27         -3.227          28.85          61.03         -11.89          3.151         -12.31         -12.78         -29.63          108.3          102.9
    0.1245              -29.27         -3.219          28.86          61.04         -11.89          3.147         -12.31         -12.78         -29.63          108.3          102.9
    0.1493              -29.27         -3.211          28.86          61.04         -11.89          3.144         -12.31         -12.77         -29.63          108.2          102.9
    0.1742              -29.26         -3.202          28.87          61.04         -11.89           3.14          -12.3         -12.76         -29.63          108.2          102.9
    0.1991              -29.26         -3.193          28.87          61.04         -11.89          3.136          -12.3         -12.76         -29.63          108.2          102.9
     0.224              -29.26         -3.183          28.88          61.04         -11.89          3.132          -12.3         -12.75         -29.63          108.2          102.8
    0.2489              -29.26         -3.172          28.89          61.04         -11.89          3.128         -12.29         -12.74         -29.63          108.2          102.8
    0.2738              -29.26         -3.161           28.9          61.04         -11.89          3.123         -12.29         -12.73         -29.63          108.1          102.8
    0.2987              -29.26         -3.148           28.9          61.05         -11.89          3.118         -12.28         -12.73         -29.63          108.1          102.8
    0.3236              -29.25         -3.135          28.91          61.05         -11.89          3.112         -12.28         -12.72         -29.63          108.1          102.8
    0.3485              -29.25         -3.121          28.92          61.05         -11.89          3.106         -12.27         -12.71         -29.64          108.1          102.8
    0.3734              -29.25         -3.105          28.93          61.05         -11.89          3.099         -12.27         -12.69         -29.64          108.0          102.8
    0.3983              -29.25         -3.088          28.95          61.05          -11.9          3.092         -12.26         -12.68         -29.64          108.0          102.8
    0.4231              -29.24         -3.069          28.96          61.06          -11.9          3.084         -12.25         -12.67         -29.64          108.0          102.8
     0.448              -29.24         -3.049          28.97          61.06          -11.9          3.075         -12.24         -12.65         -29.64          107.9          102.7
    0.4729              -29.24         -3.026          28.99          61.06          -11.9          3.066         -12.24         -12.64         -29.64          107.9          102.7
    0.4978              -29.23         -3.002           29.0          61.07          -11.9          3.056         -12.23         -12.62         -29.64          107.8          102.7
